<?xml version="1.0" encoding="utf-8"?>
<!-- Generator: Adobe Illustrator 17.0.0, SVG Export Plug-In . SVG Version: 6.00 Build 0)  -->
<!DOCTYPE svg PUBLIC "-//W3C//DTD SVG 1.1//EN" "http://www.w3.org/Graphics/SVG/1.1/DTD/svg11.dtd">
<svg version="1.1" id="Layer_1" xmlns="http://www.w3.org/2000/svg" xmlns:xlink="http://www.w3.org/1999/xlink" x="0px" y="0px"
	 width="56.69px" height="56.69px" viewBox="0 0 56.69 56.69" enable-background="new 0 0 56.69 56.69" xml:space="preserve">
<g id="hamburger">
</g>
<g id="hamburger_1_">
</g>
<g id="hamburger_2_">
</g>
<g id="hamburger_3_">
</g>
<g id="hamburger_4_">
</g>
<circle fill="none"stroke="#ffffff" stroke-width="2" stroke-miterlimit="10" cx="29.262" cy="32.345" r="19.375"/>
<path fill="none"stroke="#ffffff" stroke-width="2" stroke-miterlimit="10" d="M4.97,30.191c0-13.416,10.876-24.292,24.292-24.292
	s24.292,10.876,24.292,24.292"/>
<path fill="none"stroke="#ffffff" stroke-width="2" stroke-miterlimit="10" d="M22.474,38.408c0,0,1.398,5.237,6.063,5.601
	c4.217,0.33,6.261-2.043,7.513-5.601"/>
<circle fill="none"stroke="#ffffff" stroke-width="2" stroke-miterlimit="10" cx="23.858" cy="26.348" r="2.372"/>
<circle fill="none"stroke="#ffffff" stroke-width="2" stroke-miterlimit="10" cx="34.138" cy="26.348" r="2.372"/>
<path fill="none"stroke="#ffffff" stroke-width="2" stroke-miterlimit="10" d="M9.341,38.051c0,1.966-0.594,3.561-2.561,3.561l0,0
	c-1.966,0-1.811-1.594-1.811-3.561v-7.474c0-1.966-0.156-3.561,1.811-3.561l0,0c1.966,0,2.561,1.594,2.561,3.561V38.051z"/>
<path fill="none"stroke="#ffffff" stroke-width="2" stroke-miterlimit="10" d="M49.183,38.051c0,1.966,0.594,3.561,2.561,3.561l0,0
	c1.966,0,1.811-1.594,1.811-3.561v-7.474c0-1.966,0.156-3.561-1.811-3.561l0,0c-1.966,0-2.561,1.594-2.561,3.561V38.051z"/>
</svg>
